<?xml version="1.0" standalone="no"?>
<!DOCTYPE svg PUBLIC "-//W3C//DTD SVG 20010904//EN"
 "http://www.w3.org/TR/2001/REC-SVG-20010904/DTD/svg10.dtd">
<svg version="1.0" xmlns="http://www.w3.org/2000/svg"
 width="144.000000pt" height="154.000000pt" viewBox="0 0 144.000000 154.000000"
 preserveAspectRatio="xMidYMid meet">

<g transform="translate(0.000000,154.000000) scale(0.100000,-0.100000)"
fill="#000000" stroke="none">
<path d="M976 1401 c-10 -11 -27 -23 -36 -26 -12 -4 -22 -24 -30 -58 -21 -89
-81 -267 -116 -344 l-33 -73 -44 30 c-78 56 -155 58 -179 6 -12 -28 2 -75 29
-97 12 -11 13 -8 8 13 -9 35 10 68 38 68 13 0 47 -12 75 -26 l52 -26 -22 -41
c-13 -23 -51 -71 -86 -108 -123 -131 -198 -127 -203 11 -1 21 -2 19 -11 -10
-5 -19 -8 -54 -5 -78 17 -152 190 -88 328 123 l44 67 39 -44 c60 -67 112 -149
120 -188 10 -52 16 -57 79 -62 l57 -5 0 33 c0 30 -3 33 -40 39 l-40 7 -2 405
c-3 397 -3 405 -22 384z m-34 -438 c-3 -255 -4 -267 -20 -243 -9 14 -40 53
-69 87 l-52 62 28 63 c33 73 101 271 101 294 0 8 3 13 8 11 4 -3 6 -126 4
-274z"/>
<path d="M278 1343 l-28 -29 0 -468 c0 -410 2 -471 16 -499 47 -93 127 -132
252 -121 139 13 215 101 168 193 -8 15 -22 34 -31 41 -15 12 -15 11 -4 -13 14
-32 5 -89 -19 -109 -40 -36 -88 -52 -152 -52 -77 0 -122 20 -150 67 -19 30
-20 53 -20 456 0 392 1 425 18 437 15 11 15 15 3 36 -8 13 -17 38 -20 56 l-6
33 -27 -28z"/>
</g>
</svg>
